<?xml version="1.0" ?><svg viewBox="0 0 64 64" xmlns="http://www.w3.org/2000/svg"><defs><style>.cls-1{fill:#a2d0ff;}.cls-2{fill:#8bc4ff;}.cls-3{fill:#e8f3ff;}.cls-4{fill:#2e58ff;}</style></defs><title/><g id="Email"><path class="cls-1" d="M62,22V58a4,4,0,0,1-4,4H6a4,4,0,0,1-4-4V23c12.59,9.8,7.06,5.49,24.68,19.19a8.57,8.57,0,0,0,10.69-.12Z"/><polygon class="cls-2" points="62 22 52 30.15 52 12 62 22"/><path class="cls-3" d="M52,2V30.15L37.37,42.07a8.57,8.57,0,0,1-10.69.12L12,30.78V2Z"/><polygon class="cls-2" points="12 12 12 30.78 2 23 2 22 12 12"/><path class="cls-4" d="M64,21.91c-.05-1.11.13-.61-10-10.74V2a2,2,0,0,0-2-2H12a2,2,0,0,0-2,2v9.17L.59,20.59C-.25,21.42,0,18.72,0,58a6,6,0,0,0,6,6H58a6,6,0,0,0,6-6C64,10.56,64.11,24.51,64,21.91ZM60,57.17,47.41,44.59a2,2,0,0,0-2.82,2.82L57.17,60H6.83L19.41,47.41a2,2,0,0,0-2.82-2.82L4,57.17V27.09L25.45,43.77a10.58,10.58,0,0,0,13.18-.15L60,26.21ZM59,21.85l-5,4.09V16.83ZM14,4H50V29.2L36.1,40.52a6.57,6.57,0,0,1-8.19.09L14,29.8ZM10,26.69,4.45,22.37,10,16.83Z"/><path class="cls-4" d="M20,12H45a2,2,0,0,0,0-4H20a2,2,0,0,0,0,4Z"/><path class="cls-4" d="M20,20H45a2,2,0,0,0,0-4H20a2,2,0,0,0,0,4Z"/><path class="cls-4" d="M20,28H45a2,2,0,0,0,0-4H20a2,2,0,0,0,0,4Z"/></g></svg>